<svg width="400" height="400" viewBox="0 0 400 400" fill="none" xmlns="http://www.w3.org/2000/svg">
<rect width="400" height="400" rx="20" fill="#FFEDD5"/>
<g clip-path="url(#clip0_89_133)">
<path d="M248.333 70.5H161.417L111.75 245.5L74.5 170.5H49.6667" stroke="#166534" stroke-width="10" stroke-linecap="round" stroke-linejoin="round"/>
</g>
<path fill-rule="evenodd" clip-rule="evenodd" d="M265.615 147.637C260.877 128.121 233.123 128.121 228.385 147.637C225.324 160.244 210.881 166.226 199.802 159.476C182.652 149.027 163.027 168.652 173.476 185.802C180.226 196.881 174.244 211.324 161.637 214.385C142.121 219.123 142.121 246.877 161.637 251.615C174.244 254.676 180.226 269.119 173.476 280.198C163.027 297.348 182.652 316.973 199.802 306.524C210.881 299.774 225.324 305.756 228.385 318.363C233.123 337.879 260.877 337.879 265.615 318.363C268.676 305.756 283.119 299.774 294.198 306.524C311.348 316.973 330.973 297.348 320.524 280.198C313.774 269.119 319.756 254.676 332.363 251.615C351.879 246.877 351.879 219.123 332.363 214.385C319.756 211.324 313.774 196.881 320.524 185.802C330.973 168.652 311.348 149.027 294.198 159.476C283.119 166.226 268.676 160.244 265.615 147.637ZM247 270.5C267.711 270.5 284.5 253.711 284.5 233C284.5 212.289 267.711 195.5 247 195.5C226.289 195.5 209.5 212.289 209.5 233C209.5 253.711 226.289 270.5 247 270.5Z" fill="#166534"/>
<defs>
<clipPath id="clip0_89_133">
<rect width="298" height="300" fill="white" transform="translate(0 8)"/>
</clipPath>
</defs>
</svg>
